<svg width="276" height="100" viewBox="0 0 276 100" fill="none" xmlns="http://www.w3.org/2000/svg">
<g filter="url(#filter0_d)">
<rect x="7.48956" width="264" height="80" transform="rotate(2.5 7.48956 0)" fill="#181717"/>
<path d="M148.005 31.1388C148.445 31.158 148.798 31.3136 149.066 31.6056C149.333 31.8975 149.457 32.2633 149.438 32.7028L149.129 39.7761C149.112 40.1757 148.956 40.5293 148.663 40.8368C148.371 41.1043 148.005 41.2284 147.565 41.2092L142.53 40.9894L141.672 45.5163L145.808 45.6969C146.248 45.7161 146.601 45.8716 146.869 46.1636C147.136 46.4555 147.26 46.8213 147.241 47.2609L146.906 54.9336C146.889 55.3332 146.733 55.6867 146.439 55.9942C146.147 56.2617 145.782 56.3859 145.342 56.3667L139.648 56.1181L138.646 61.1792C138.55 61.5354 138.357 61.8272 138.067 62.0548C137.817 62.2841 137.492 62.39 137.092 62.3726L129.539 62.0428C129.18 62.0271 128.865 61.8933 128.596 61.6413C128.369 61.3511 128.263 61.0261 128.278 60.6665L128.284 60.5466L129.277 55.6653L124.182 55.4428L123.181 60.504C123.085 60.8601 122.892 61.152 122.602 61.3796C122.352 61.6089 122.027 61.7148 121.627 61.6973L114.074 61.3676C113.715 61.3519 113.4 61.218 113.131 60.966C112.903 60.6758 112.797 60.3509 112.813 59.9912L112.818 59.8714L113.812 54.9901L110.515 54.8461C110.116 54.8287 109.762 54.6731 109.455 54.3794C109.189 54.0475 109.065 53.6817 109.082 53.2821L109.417 45.6094C109.436 45.1699 109.592 44.8163 109.884 44.5488C110.216 44.283 110.582 44.1588 110.981 44.1763L115.836 44.3883L116.695 39.8614L112.739 39.6887C112.339 39.6712 111.985 39.5157 111.678 39.222C111.412 38.8901 111.288 38.5243 111.305 38.1247L111.614 31.0514C111.633 30.6118 111.789 30.2583 112.081 29.9908C112.413 29.725 112.779 29.6008 113.178 29.6183L118.633 29.8564L119.468 25.869C119.563 25.5129 119.736 25.2201 119.987 24.9908C120.277 24.7633 120.602 24.6574 120.961 24.6731L128.514 25.0028C128.874 25.0185 129.167 25.1715 129.395 25.4617C129.664 25.7137 129.791 26.0195 129.775 26.3791L129.767 26.559L129.003 30.3092L134.098 30.5317L134.933 26.5443C135.029 26.1881 135.202 25.8954 135.452 25.6661C135.742 25.4385 136.067 25.3326 136.427 25.3483L143.979 25.678C144.339 25.6938 144.633 25.8467 144.86 26.1369C145.13 26.3889 145.256 26.6947 145.241 27.0544L145.233 27.2342L144.468 30.9844L148.005 31.1388ZM125.959 45.0104L131.414 45.2486L132.408 40.3673L126.953 40.1291L125.959 45.0104ZM174.879 39.5791C179.254 40.2506 182.737 41.1834 185.327 42.3775C187.957 43.5734 189.833 45.0766 190.956 46.8873C192.078 48.698 192.581 50.9221 192.466 53.5595C192.307 57.1961 190.696 60.1686 187.632 62.4772C184.569 64.7858 180.544 66.1715 175.56 66.6345L175.392 70.4709C175.373 70.9105 175.196 71.2831 174.863 71.5889C174.529 71.8946 174.142 72.0379 173.703 72.0187L165.671 71.668C165.231 71.6488 164.858 71.4724 164.553 71.1387C164.247 70.8051 164.104 70.4184 164.123 69.9789L164.29 66.1425C160.873 65.5529 158.011 64.6072 155.706 63.3054C153.442 61.9653 151.768 60.4109 150.684 58.6419C149.601 56.8729 149.101 55.0094 149.187 53.0513C149.204 52.6516 149.338 52.3372 149.588 52.1079C149.879 51.8803 150.224 51.7753 150.623 51.7927L162.911 52.3292C163.751 52.3659 164.419 52.6553 164.916 53.1975C165.567 53.8665 166.307 54.3392 167.136 54.6157C167.966 54.8521 169.141 55.0035 170.659 55.0698C174.456 55.2355 176.379 54.739 176.43 53.5801C176.451 53.1005 176.208 52.6896 175.703 52.3472C175.239 51.9666 174.373 51.6285 173.105 51.3329C171.878 50.9991 170.052 50.6391 167.627 50.2529C162.18 49.3745 158.043 47.8326 155.217 45.6272C152.392 43.3818 151.063 40.341 151.231 36.5046C151.379 33.1079 152.783 30.2865 155.444 28.0404C158.106 25.7543 161.671 24.3485 166.138 23.8228L166.324 19.5669C166.343 19.1273 166.519 18.7546 166.853 18.4489C167.187 18.1432 167.573 17.9999 168.013 18.0191L176.045 18.3698C176.485 18.389 176.858 18.5654 177.163 18.8991C177.469 19.2327 177.612 19.6193 177.593 20.0589L177.407 24.3149C180.462 24.9687 183.079 26.0039 185.259 27.4203C187.44 28.8368 189.073 30.3895 190.161 32.0785C191.288 33.7693 191.819 35.374 191.752 36.8925C191.735 37.2922 191.581 37.6058 191.291 37.8333C191.041 38.0626 190.696 38.1677 190.256 38.1485L177.368 37.5858C176.649 37.5544 176.04 37.2876 175.542 36.7853C175.119 36.3665 174.614 36.0242 174.025 35.7582C173.436 35.4923 172.522 35.3322 171.283 35.2782C168.606 35.1613 167.243 35.6623 167.194 36.7812C167.168 37.3806 167.666 37.8829 168.689 38.2879C169.715 38.6529 171.778 39.0834 174.879 39.5791ZM200.171 47.1095C200.351 42.9934 201.225 39.9486 202.792 37.9751C204.36 36.0016 206.862 35.0899 210.299 35.2399C212.017 35.315 213.307 35.5715 214.169 36.0095C215.03 36.4475 215.633 36.8542 215.977 37.2295C216.323 37.5649 216.534 37.7743 216.61 37.8578L216.621 37.618C216.64 37.1784 216.816 36.8057 217.15 36.5C217.484 36.1943 217.87 36.051 218.31 36.0702L223.825 36.311C224.264 36.3302 224.637 36.5066 224.943 36.8402C225.248 37.1739 225.392 37.5605 225.373 38.0001L224.818 50.708C224.774 51.707 224.88 52.4924 225.135 53.0641C225.391 53.6358 225.938 53.9399 226.777 53.9766C227.696 54.0167 228.307 53.7831 228.609 53.2758C228.913 52.7286 229.088 51.9354 229.134 50.8964L229.445 43.7632C229.642 39.2475 228.462 36.013 225.905 34.0596C223.348 32.1062 219.631 31.023 214.756 30.8102C209.681 30.5886 205.504 31.3471 202.225 33.0857C198.986 34.8261 197.27 37.8942 197.078 42.29L196.715 50.6221C196.5 55.5374 197.909 59.0422 200.94 61.1364C204.012 63.2324 208.105 64.392 213.22 64.6153C216.537 64.7602 218.88 64.7423 220.249 64.5619C221.62 64.3415 222.781 63.8917 223.731 63.2125C223.773 63.1743 223.918 63.0605 224.167 62.8712C224.457 62.6436 224.802 62.5385 225.201 62.556L234.193 62.9486C234.552 62.9643 234.847 63.0972 235.076 63.3475C235.305 63.5977 235.412 63.9027 235.397 64.2623C235.384 64.5421 235.272 64.8174 235.06 65.0884C233.668 66.7093 232.108 68.0625 230.379 69.1481C228.65 70.2337 226.372 71.0551 223.545 71.6124C220.718 72.1696 217.206 72.3566 213.01 72.1734C207.296 71.9239 202.539 70.8353 198.739 68.9078C194.938 67.0202 192.145 64.496 190.361 61.3351C188.619 58.1361 187.837 54.4985 188.015 50.4224L188.387 41.9105C188.553 38.1141 189.639 34.7784 191.646 31.9032C193.695 28.9898 196.696 26.7585 200.647 25.2094C204.598 23.6603 209.411 23.0096 215.086 23.2574C223.438 23.622 229.434 25.6855 233.073 29.4478C236.712 33.2102 238.398 38.1484 238.132 44.2626L237.828 51.216C237.697 54.2131 236.591 56.6272 234.509 58.4581C232.429 60.2491 229.63 61.0678 226.114 60.9142C221.558 60.7153 218.65 59.4673 217.389 57.1701C216.671 58.0196 215.621 58.6944 214.237 59.1946C212.856 59.6547 211.186 59.8421 209.228 59.7566C205.791 59.6065 203.377 58.5002 201.986 56.4375C200.596 54.3349 199.991 51.2256 200.171 47.1095ZM209.942 47.5361C209.879 48.9747 209.991 50.0807 210.277 50.8539C210.606 51.5889 211.269 51.9782 212.268 52.0218C214.147 52.1039 215.15 50.6663 215.279 47.7091C215.414 44.632 214.542 43.0525 212.664 42.9705C211.665 42.9269 210.967 43.3168 210.571 44.1403C210.216 44.9256 210.006 46.0575 209.942 47.5361Z" fill="white"/>
<path d="M64.1795 18.8908C68.8151 19.0932 72.4837 19.8939 75.1852 21.2931C77.9285 22.6541 79.822 24.2182 80.8659 25.9854C81.9098 27.7526 82.3978 29.4154 82.3297 30.974C82.2669 32.4126 81.9096 33.7183 81.2579 34.8909C80.6078 36.0237 79.8449 36.9913 78.9691 37.7939C78.1349 38.5582 76.9915 39.5293 75.5387 40.707C73.6776 42.0671 72.3656 43.231 71.6027 44.1986C71.0518 44.8953 70.6512 45.3582 70.4009 45.5875C70.1924 45.7786 69.8484 45.8637 69.3688 45.8428L55.3422 45.2304C55.0625 45.2181 54.8071 45.1069 54.576 44.8966C54.3467 44.6464 54.2382 44.3814 54.2504 44.1017C54.2591 43.9018 54.2861 43.7429 54.3313 43.6247C54.8302 42.2852 55.6427 41.0995 56.7687 40.0677C57.9348 39.0375 59.4032 37.9606 61.1739 36.8367C62.5345 35.9352 63.5267 35.2178 64.1506 34.6845C64.7762 34.1113 65.1021 33.5249 65.1282 32.9255C65.1544 32.3261 64.9773 31.7978 64.5969 31.3408C64.2164 30.8838 63.5467 30.6343 62.5876 30.5925C61.5486 30.5471 60.8014 30.6946 60.3461 31.0351C59.9326 31.3374 59.5511 31.8212 59.2017 32.4866C58.8976 33.0338 58.5795 33.4403 58.2476 33.7061C57.9557 33.9736 57.47 34.0926 56.7907 34.0629L44.4424 33.5238C44.0029 33.5046 43.6511 33.309 43.387 32.9372C43.123 32.5653 43.0015 32.1396 43.0224 31.6601L43.025 31.6001C43.1192 29.4422 43.951 27.3565 45.5203 25.343C47.0914 23.2896 49.4451 21.6507 52.5815 20.4263C55.7579 19.2037 59.6239 18.6919 64.1795 18.8908ZM68.2998 48.3185C68.7394 48.3377 69.1121 48.5141 69.4178 48.8478C69.7235 49.1814 69.8668 49.568 69.8476 50.0076L69.4053 60.138C69.3861 60.5776 69.2097 60.9502 68.876 61.2559C68.5424 61.5617 68.1558 61.705 67.7162 61.6858L55.5478 61.1545C55.1082 61.1353 54.7355 60.9589 54.4298 60.6252C54.1241 60.2916 53.9808 59.9049 54 59.4654L54.4423 49.335C54.4615 48.8954 54.6379 48.5228 54.9716 48.217C55.3052 47.9113 55.6918 47.768 56.1314 47.7872L68.2998 48.3185ZM101.654 21.1275C102.094 21.1467 102.466 21.3231 102.772 21.6568C103.078 21.9904 103.219 22.417 103.197 22.9365L102.14 45.7721C102.122 46.1718 101.947 46.5244 101.613 46.8302C101.281 47.096 100.895 47.2192 100.456 47.2001L88.3473 46.6714C87.9077 46.6522 87.5351 46.4758 87.2293 46.1421C86.9236 45.8085 86.7812 45.4019 86.8021 44.9223L87.7862 22.3838C87.8106 21.8243 87.9697 21.3909 88.2634 21.0834C88.5988 20.7377 89.0062 20.5753 89.4858 20.5962L101.654 21.1275ZM100.346 49.7177C100.785 49.7369 101.158 49.9133 101.464 50.2469C101.77 50.5806 101.913 50.9672 101.894 51.4068L101.451 61.5371C101.432 61.9767 101.256 62.3494 100.922 62.6551C100.588 62.9608 100.202 63.1041 99.7622 63.0849L87.6538 62.5563C87.2142 62.5371 86.8415 62.3606 86.5358 62.027C86.23 61.6933 86.0868 61.3067 86.106 60.8671L86.5483 50.7368C86.5675 50.2972 86.7439 49.9245 87.0775 49.6188C87.4112 49.3131 87.7978 49.1698 88.2374 49.189L100.346 49.7177Z" fill="white"/>
</g>
<defs>
<filter id="filter0_d" x="1.52588e-05" y="0" width="275.238" height="99.4394" filterUnits="userSpaceOnUse" color-interpolation-filters="sRGB">
<feFlood flood-opacity="0" result="BackgroundImageFix"/>
<feColorMatrix in="SourceAlpha" type="matrix" values="0 0 0 0 0 0 0 0 0 0 0 0 0 0 0 0 0 0 127 0"/>
<feOffset dy="4"/>
<feGaussianBlur stdDeviation="2"/>
<feColorMatrix type="matrix" values="0 0 0 0 0 0 0 0 0 0 0 0 0 0 0 0 0 0 0.25 0"/>
<feBlend mode="normal" in2="BackgroundImageFix" result="effect1_dropShadow"/>
<feBlend mode="normal" in="SourceGraphic" in2="effect1_dropShadow" result="shape"/>
</filter>
</defs>
</svg>
